<svg xmlns="http://www.w3.org/2000/svg" xmlns:xlink="http://www.w3.org/1999/xlink" width="170" zoomAndPan="magnify" viewBox="0 0 127.5 30.000001" height="40" preserveAspectRatio="xMidYMid meet" version="1.0"><defs><g/></defs><g fill="#03989e" fill-opacity="1"><g transform="translate(5.486241, 20.766606)"><g><path d="M 6.75 -4.015625 L 6.84375 0 L 4.59375 0 L 4.703125 -4.015625 L 4.671875 -4.875 L 0.234375 -14.03125 L 2.640625 -14.03125 L 2.921875 -13.15625 L 5.703125 -7.28125 L 5.875 -7.28125 L 8.96875 -13.109375 L 9.3125 -14.03125 L 11.65625 -14.03125 L 6.78125 -4.984375 Z M 6.75 -4.015625 "/></g></g></g><g fill="#ffffff" fill-opacity="1"><g transform="translate(17.304078, 20.766606)"><g><path d="M 10.53125 -5.375 L 10.515625 -3.765625 C 10.523438 -2.523438 10.128906 -1.5625 9.328125 -0.875 C 8.523438 -0.1875 7.390625 0.15625 5.921875 0.15625 C 4.460938 0.15625 3.351562 -0.179688 2.59375 -0.859375 C 1.84375 -1.535156 1.484375 -2.503906 1.515625 -3.765625 L 1.53125 -5.4375 L 1.46875 -10.953125 L 3.578125 -10.953125 L 3.46875 -4.09375 C 3.457031 -2.425781 4.304688 -1.59375 6.015625 -1.59375 C 6.859375 -1.59375 7.5 -1.800781 7.9375 -2.21875 C 8.375 -2.632812 8.582031 -3.257812 8.5625 -4.09375 L 8.484375 -10.953125 L 10.609375 -10.953125 Z M 10.53125 -5.375 "/></g></g></g><g fill="#ffffff" fill-opacity="1"><g transform="translate(29.364329, 20.766606)"><g><path d="M 6.3125 -11.03125 C 7.988281 -11.03125 9.273438 -10.585938 10.171875 -9.703125 C 11.066406 -8.816406 11.515625 -7.539062 11.515625 -5.875 C 11.515625 -3.9375 11.019531 -2.453125 10.03125 -1.421875 C 9.039062 -0.398438 7.628906 0.109375 5.796875 0.109375 C 4.410156 0.109375 3.082031 0.0703125 1.8125 0 L 1.90625 -3.28125 L 1.8125 -10.953125 Z M 6.140625 -1.53125 C 7.171875 -1.53125 7.960938 -1.847656 8.515625 -2.484375 C 9.078125 -3.128906 9.359375 -4.101562 9.359375 -5.40625 C 9.359375 -6.757812 9.09375 -7.742188 8.5625 -8.359375 C 8.039062 -8.984375 7.242188 -9.296875 6.171875 -9.296875 C 5.265625 -9.296875 4.507812 -9.265625 3.90625 -9.203125 L 3.828125 -3.46875 L 3.875 -1.6875 C 4.96875 -1.582031 5.722656 -1.53125 6.140625 -1.53125 Z M 6.140625 -1.53125 "/></g></g></g><g fill="#ffffff" fill-opacity="1"><g transform="translate(41.752293, 20.766606)"><g><path d="M 3.828125 -3.46875 L 3.90625 0 L 1.8125 0 L 1.90625 -3.28125 L 1.8125 -10.953125 L 3.9375 -10.953125 Z M 3.828125 -3.46875 "/></g></g></g><g fill="#ffffff" fill-opacity="1"><g transform="translate(47.585784, 20.766606)"><g><path d="M 5.96875 -10.96875 C 7.144531 -10.96875 8.054688 -10.679688 8.703125 -10.109375 C 9.359375 -9.535156 9.6875 -8.71875 9.6875 -7.65625 C 9.6875 -6.394531 9.269531 -5.40625 8.4375 -4.6875 C 7.601562 -3.96875 6.484375 -3.609375 5.078125 -3.609375 L 3.828125 -3.609375 L 3.828125 -3.46875 L 3.90625 0 L 1.8125 0 L 1.90625 -3.28125 L 1.8125 -10.953125 Z M 5.59375 -5.1875 C 6.84375 -5.445312 7.46875 -6.207031 7.46875 -7.46875 C 7.46875 -8.101562 7.289062 -8.570312 6.9375 -8.875 C 6.59375 -9.175781 6.054688 -9.34375 5.328125 -9.375 L 3.90625 -9.328125 L 3.84375 -5.21875 Z M 5.59375 -5.1875 "/></g></g></g><g fill="#000000" fill-opacity="1"><g transform="translate(58.028937, 20.766606)"><g/></g></g><g fill="#03989e" fill-opacity="1"><g transform="translate(61.524193, 20.766606)"><g><path d="M 12.234375 -6.90625 L 12.21875 -5.25 C 12.25 -3.53125 11.78125 -2.195312 10.8125 -1.25 C 9.851562 -0.300781 8.492188 0.171875 6.734375 0.171875 C 5.023438 0.171875 3.71875 -0.28125 2.8125 -1.1875 C 1.914062 -2.101562 1.484375 -3.398438 1.515625 -5.078125 L 1.546875 -7.015625 L 1.515625 -14.03125 L 3.734375 -14.03125 L 3.65625 -5.375 C 3.632812 -4.15625 3.894531 -3.242188 4.4375 -2.640625 C 4.976562 -2.046875 5.796875 -1.75 6.890625 -1.75 C 9.078125 -1.75 10.160156 -2.882812 10.140625 -5.15625 L 10.03125 -14.03125 L 12.3125 -14.03125 Z M 12.234375 -6.90625 "/></g></g></g><g fill="#ffffff" fill-opacity="1"><g transform="translate(75.300284, 20.766606)"><g><path d="M 5.96875 -10.96875 C 7.144531 -10.96875 8.054688 -10.679688 8.703125 -10.109375 C 9.359375 -9.535156 9.6875 -8.71875 9.6875 -7.65625 C 9.6875 -6.394531 9.269531 -5.40625 8.4375 -4.6875 C 7.601562 -3.96875 6.484375 -3.609375 5.078125 -3.609375 L 3.828125 -3.609375 L 3.828125 -3.46875 L 3.90625 0 L 1.8125 0 L 1.90625 -3.28125 L 1.8125 -10.953125 Z M 5.59375 -5.1875 C 6.84375 -5.445312 7.46875 -6.207031 7.46875 -7.46875 C 7.46875 -8.101562 7.289062 -8.570312 6.9375 -8.875 C 6.59375 -9.175781 6.054688 -9.34375 5.328125 -9.375 L 3.90625 -9.328125 L 3.84375 -5.21875 Z M 5.59375 -5.1875 "/></g></g></g><g fill="#ffffff" fill-opacity="1"><g transform="translate(85.743759, 20.766606)"><g><path d="M 7.46875 -4.375 C 8.320312 -3.101562 9.28125 -1.8125 10.34375 -0.5 L 10.3125 -0.234375 C 9.5625 -0.015625 8.898438 0.113281 8.328125 0.15625 L 8 -0.046875 C 6.9375 -1.765625 6.1875 -3.015625 5.75 -3.796875 L 3.828125 -3.78125 L 3.828125 -3.46875 L 3.90625 0 L 1.8125 0 L 1.90625 -3.28125 L 1.8125 -10.953125 L 5.96875 -10.96875 C 7.144531 -10.96875 8.054688 -10.6875 8.703125 -10.125 C 9.359375 -9.570312 9.6875 -8.785156 9.6875 -7.765625 C 9.6875 -7.046875 9.492188 -6.394531 9.109375 -5.8125 C 8.722656 -5.226562 8.175781 -4.75 7.46875 -4.375 Z M 3.84375 -5.46875 L 5.75 -5.40625 C 6.894531 -5.738281 7.46875 -6.457031 7.46875 -7.5625 C 7.46875 -8.15625 7.289062 -8.59375 6.9375 -8.875 C 6.59375 -9.164062 6.066406 -9.328125 5.359375 -9.359375 L 3.90625 -9.3125 Z M 3.84375 -5.46875 "/></g></g></g><g fill="#ffffff" fill-opacity="1"><g transform="translate(96.842683, 20.766606)"><g><path d="M 8.859375 -1.75 L 9 -1.59375 L 8.828125 0 L 1.8125 0 L 1.90625 -3.28125 L 1.8125 -10.953125 L 8.890625 -10.953125 L 9.03125 -10.78125 L 8.875 -9.1875 L 6.09375 -9.296875 L 3.90625 -9.265625 L 3.875 -6.421875 L 5.96875 -6.40625 L 7.875 -6.46875 L 7.984375 -6.296875 L 7.84375 -4.671875 L 5.796875 -4.75 L 3.84375 -4.71875 L 3.828125 -3.46875 L 3.875 -1.6875 L 5.90625 -1.65625 Z M 8.859375 -1.75 "/></g></g></g><g fill="#ffffff" fill-opacity="1"><g transform="translate(106.543317, 20.766606)"><g><path d="M 9.03125 -10.78125 L 8.890625 -9.09375 L 6.78125 -9.25 L 5.859375 -9.25 L 5.8125 -3.46875 L 5.875 0 L 3.78125 0 L 3.875 -3.28125 L 3.828125 -9.25 L 2.921875 -9.25 L 0.765625 -9.09375 L 0.609375 -9.265625 L 0.765625 -10.953125 L 8.921875 -10.953125 Z M 9.03125 -10.78125 "/></g></g></g><g fill="#ffffff" fill-opacity="1"><g transform="translate(116.178409, 20.766606)"><g><path d="M 3.828125 -3.46875 L 3.90625 0 L 1.8125 0 L 1.90625 -3.28125 L 1.8125 -10.953125 L 3.9375 -10.953125 Z M 3.828125 -3.46875 "/></g></g></g></svg>